<?xml version="1.0" encoding="UTF-8" standalone="no"?>
<svg
   xmlns:dc="http://purl.org/dc/elements/1.1/"
   xmlns:cc="http://creativecommons.org/ns#"
   xmlns:rdf="http://www.w3.org/1999/02/22-rdf-syntax-ns#"
   xmlns:svg="http://www.w3.org/2000/svg"
   xmlns="http://www.w3.org/2000/svg"
   xmlns:sodipodi="http://sodipodi.sourceforge.net/DTD/sodipodi-0.dtd"
   xmlns:inkscape="http://www.inkscape.org/namespaces/inkscape"
   viewBox="0 0 188.69999 188.7"
   version="1.1"
   id="svg4"
   sodipodi:docname="spongie-mark-reverse-dark-center.svg"
   inkscape:export-filename="/home/felix/Development/javascript/SpongeHome/public/assets/img/icons/spongie-mark-reverse-dark.svg.png"
   inkscape:export-xdpi="96.152626"
   inkscape:export-ydpi="96.152626"
   width="188.7"
   height="188.7"
   style="fill:#333333"
   inkscape:version="0.92.4 5da689c313, 2019-01-14">
  <metadata
     id="metadata10">
    <rdf:RDF>
      <cc:Work
         rdf:about="">
        <dc:format>image/svg+xml</dc:format>
        <dc:type
           rdf:resource="http://purl.org/dc/dcmitype/StillImage" />
        <dc:title></dc:title>
      </cc:Work>
    </rdf:RDF>
  </metadata>
  <defs
     id="defs8" />
  <sodipodi:namedview
     pagecolor="#ffffff"
     bordercolor="#666666"
     borderopacity="1"
     objecttolerance="10"
     gridtolerance="10"
     guidetolerance="10"
     inkscape:pageopacity="0"
     inkscape:pageshadow="2"
     inkscape:window-width="1920"
     inkscape:window-height="1004"
     id="namedview6"
     showgrid="false"
     inkscape:zoom="1.2506624"
     inkscape:cx="117.7303"
     inkscape:cy="94.349998"
     inkscape:window-x="0"
     inkscape:window-y="0"
     inkscape:window-maximized="1"
     inkscape:current-layer="svg4" />
  <path
     d="m 19.152042,184 c 0.2,3.4 2.6,4.6 5.6,4.6 H 168.15204 c 2.4,0 5.3,-1.2 5.5,-4.7 4.6,-61.3 -3.7,-109.199994 -14.6,-120.199994 -7.7,-7.8 -24.8,-10.6 -47.2,-12.8 -0.3,-1.7 -0.6,-3.6 -1,-5.6 -0.3,-1.3 -0.5,-2.7 -0.9,-4.1 -0.2,-0.7 -0.3,-1.4 -0.5,-2.1 -0.2,-0.7 -0.4,-1.5 -0.5,-2.2 -0.4,-1.5 -0.8,-3 -1.2,-4.6 -0.5,-1.6 -0.9,-3.1 -1.5,-4.8 -1.1,-3.2 -2.3,-6.6 -3.9,-10 -0.8,-1.7 -1.7,-3.4 -2.9,-5.2 -0.6,-0.9 -1.2,-1.8 -2,-2.6999998 -0.8,-0.7 -1.7,-1.6 -2.8,-2.4 -0.5,-0.4 -1.2,-0.8 -1.9,-1.2 -0.3,-0.2 -0.7,-0.4 -1.1,-0.5 -0.4,-0.2 -0.7,-0.3 -1.3,-0.5 l -0.4,-0.1 c -0.1,0 -0.3,-0.1 -0.3,-0.1 l -0.3,-0.1 h -0.1 l -0.3,-0.1 h -0.7 c -0.3,0 -0.6,-0.1 -0.8,-0.1 h -0.8 c -2.2,-0.1 -4.2,0.1 -6.1,0.3 -3.8,0.6 -7.299998,1.5 -10.499998,2.5 -3.3,1 -6.3,2.1 -9.1,3.1999998 -1.1,0.4 -2.2,0.8 -3.2,1.2 -4.2,-6.9999998 -11.8,-11.6999998964844 -20.5,-11.6999998964844 -13,0 -23.5,10.4999998964844 -23.5,23.4999998964844 0,13 10.5,23.5 23.5,23.5 13,0 23.5,-10.5 23.5,-23.5 0,-0.9 -0.1,-1.8 -0.2,-2.6 1.1,-0.4 2.3,-0.8 3.4,-1.1 2.8,-0.9 5.7,-1.7 8.7,-2.4 2.999998,-0.7 6.099998,-1.3 8.999998,-1.5 1.5,-0.1 2.9,-0.1 4.2,0 h 0.5 l 0.4,0.1 h 0.2 l 0.3,0.1 c 0.1,0 0,0 0,0 h -0.1 c -0.2,-0.1 -0.1,0 -0.1,0 h 0.1 c 0.1,0.1 0.2,0.1 0.3,0.2 0.5,0.4 1.3,1.4 2,2.5 0.7,1.1 1.3,2.5 1.9,3.9 1.2,2.8 2.1,5.8 3,8.7 0.4,1.5 0.8,3 1.2,4.4 0.4,1.5 0.7,2.9 1,4.3 0.3,1.4 0.6,2.8 0.9,4.1 0.3,1.3 0.6,2.6 0.8,3.9 0.1,0.7 0.3,1.3 0.4,2 -14.9,-0.8 -36.599998,0.3 -44.499998,1.8 -21.1,4.1 -23.5,19.4 -24.9,24.1 -1.4,4.7 -5.2,17.6 -3.6,19.8 2.4,3.3 5.5,6.699994 7.7,9.599994 3.6,4.7 5.5,11.2 0.4,15.2 -5.9,4.8 -7.6,5.4 -11.4,11 -3,4.4 -4.6,10.9 -3.2,52.4 z m 47.3,-52.7 c -11.9,-2.4 -6.7,-43.799994 1.7,-42.599994 8.499998,1.2 9.499998,44.799994 -1.7,42.599994 z m 28.199998,43.8 c -12.4,0 -11.3,-42.1 -10,-45.7 1.3,-3.6 21.6,-2.5 22.1,0 0.4,2.5 0.3,45.7 -12.1,45.7 z m 27.6,-43.8 c -11.9,-2.4 -6.7,-43.799994 1.7,-42.599994 8.5,1.2 9.5,44.799994 -1.7,42.599994 z"
     id="path2"
     inkscape:connector-curvature="0" />
</svg>
